# Blender 4.3.1
# www.blender.org
mtllib boat.mtl
o boat
v 0.476250 0.008750 0.570000
v 0.570000 0.008750 0.570000
v 0.476250 -0.366250 0.570000
v 0.570000 -0.366250 0.570000
v 0.570000 0.008750 -0.930000
v 0.476250 0.008750 -0.930000
v 0.570000 -0.366250 -0.930000
v 0.476250 -0.366250 -0.930000
v -0.555000 -0.366250 0.570000
v 0.570000 -0.366250 0.570000
v -0.555000 -0.460000 0.570000
v 0.570000 -0.460000 0.570000
v 0.570000 -0.366250 -0.930000
v -0.555000 -0.366250 -0.930000
v 0.570000 -0.460000 -0.930000
v -0.555000 -0.460000 -0.930000
v -0.555000 0.008750 0.570000
v -0.461250 0.008750 0.570000
v -0.555000 -0.366250 0.570000
v -0.461250 -0.366250 0.570000
v -0.461250 0.008750 -0.930000
v -0.555000 0.008750 -0.930000
v -0.461250 -0.366250 -0.930000
v -0.555000 -0.366250 -0.930000
v -0.461250 0.008750 0.570000
v 0.476250 0.008750 0.570000
v -0.461250 -0.366250 0.570000
v 0.476250 -0.366250 0.570000
v 0.476250 0.008750 0.476250
v -0.461250 0.008750 0.476250
v 0.476250 -0.366250 0.476250
v -0.461250 -0.366250 0.476250
v -0.461250 0.008750 -0.836250
v 0.476250 0.008750 -0.836250
v -0.461250 -0.366250 -0.836250
v 0.476250 -0.366250 -0.836250
v 0.476250 0.008750 -0.930000
v -0.461250 0.008750 -0.930000
v 0.476250 -0.366250 -0.930000
v -0.461250 -0.366250 -0.930000
vn 1.0000 -0.0000 -0.0000
vn -0.0000 -0.0000 1.0000
vn -1.0000 -0.0000 -0.0000
vn -0.0000 -0.0000 -1.0000
vn -0.0000 1.0000 -0.0000
vn -0.0000 -1.0000 -0.0000
vt 0.000000 0.562500
vt 0.937500 0.562500
vt 0.937500 0.812500
vt 0.000000 0.812500
vt 1.000000 0.562500
vt 1.000000 0.812500
vt 0.000000 0.062500
vt 1.000000 0.062500
vt 1.000000 0.312500
vt 0.000000 0.312500
vt 0.000000 0.500000
vt 1.000000 0.500000
vt 0.000000 0.000000
vt 1.000000 0.000000
vt 0.750000 0.000000
vt 0.750000 0.062500
vt 0.000000 0.250000
vt 1.000000 0.250000
vt 1.000000 1.000000
vt 0.000000 1.000000
vt 0.000000 0.750000
vt 1.000000 0.750000
vt 0.625000 0.562500
vt 0.625000 0.812500
vt 0.937500 0.000000
vt 0.937500 0.312500
vt 0.000000 0.937500
vt 1.000000 0.937500
vt 0.062500 0.750000
vt 0.062500 1.000000
vt 0.000000 0.375000
vt 0.062500 0.375000
s 1
usemtl entities/boat
f 4/1/1 7/2/1 5/3/1 2/4/1
f 3/2/2 4/5/2 2/6/2 1/3/2
f 8/7/3 3/8/3 1/9/3 6/10/3
f 7/2/4 8/5/4 6/6/4 5/3/4
f 6/11/5 1/12/5 2/5/5 5/1/5
f 12/13/1 15/14/1 13/8/1 10/7/1
f 11/13/2 12/15/2 10/16/2 9/7/2
f 16/13/3 11/14/3 9/8/3 14/7/3
f 15/13/4 16/15/4 14/16/4 13/7/4
f 14/17/5 9/18/5 10/19/5 13/20/5
f 15/17/6 12/18/6 11/19/6 16/20/6
f 20/7/1 23/8/1 21/9/1 18/10/1
f 19/2/2 20/5/2 18/6/2 17/3/2
f 24/1/3 19/2/3 17/3/3 22/4/3
f 23/2/4 24/5/4 22/6/4 21/3/4
f 22/21/5 17/22/5 18/6/5 21/4/5
f 27/1/2 28/23/2 26/24/2 25/4/2
f 35/1/2 36/23/2 34/24/2 33/4/2
f 39/1/4 40/23/4 38/24/4 37/4/4
f 38/25/5 33/14/5 34/9/5 37/26/5
f 7/27/6 4/28/6 3/19/6 8/20/6
f 23/27/6 20/28/6 19/19/6 24/20/6
f 28/21/1 31/29/1 29/30/1 26/20/1
f 32/21/3 27/29/3 25/30/3 30/20/3
f 31/31/6 28/32/6 27/30/6 32/20/6
f 36/21/1 39/29/1 37/30/1 34/20/1
f 40/21/3 35/29/3 33/30/3 38/20/3
f 39/31/6 36/32/6 35/30/6 40/20/6
f 31/1/4 32/23/4 30/24/4 29/4/4
f 30/25/5 25/14/5 26/9/5 29/26/5
